<svg width="1288" height="840" viewBox="0 0 1288 840" fill="none" xmlns="http://www.w3.org/2000/svg">
<g clip-path="url(#clip0_1_4)" filter="url(#filter0_d_1_4)">
<rect width="1280" height="832" transform="translate(4)" fill="black"/>
<path opacity="0.81" d="M364.733 133.053L372.324 90.0011C376.575 65.892 398.858 50.2893 422.967 54.5404L415.376 97.5923C411.125 121.701 388.842 137.304 364.733 133.053Z" fill="#B6B3F3"/>
<path opacity="0.82" d="M376.445 294.72L385.593 251.681C390.716 227.58 413.677 212.669 437.779 217.791L428.631 260.83C423.508 284.931 400.546 299.842 376.445 294.72Z" fill="#B6B3F3"/>
<path opacity="0.82" d="M408.115 428.09L418.813 385.184C424.804 361.156 448.39 346.984 472.418 352.975L461.72 395.882C455.729 419.909 432.143 434.081 408.115 428.09Z" fill="#B6B3F3"/>
<path opacity="0.67" d="M860.24 207.554L832.852 183.747C817.515 170.414 815.94 147.888 829.272 132.551L856.66 156.359C871.997 169.691 873.572 192.217 860.24 207.554Z" fill="#B6B3F3"/>
<g opacity="0.59" filter="url(#filter1_f_1_4)">
<path d="M980.676 232.943L948.901 229.042C931.107 226.857 918.842 211.159 921.027 193.365L952.802 197.267C970.597 199.451 982.861 215.149 980.676 232.943Z" fill="#B6B3F3"/>
</g>
<g opacity="0.59" filter="url(#filter2_f_1_4)">
<path d="M975.703 484.92L943.928 481.019C926.133 478.834 913.869 463.136 916.054 445.342L947.829 449.244C965.623 451.428 977.888 467.126 975.703 484.92Z" fill="#B6B3F3"/>
</g>
<path opacity="0.72" d="M178.528 914.604L159.723 880.681C149.193 861.683 155.846 838.483 174.843 827.953L193.647 861.876C204.178 880.874 197.525 904.074 178.528 914.604Z" fill="#B6B3F3"/>
<g opacity="0.51" filter="url(#filter3_f_1_4)">
<path d="M1140.99 494.735L1116.29 507.323C1102.45 514.371 1086.05 509.04 1079 495.206L1103.7 482.619C1117.54 475.57 1133.94 480.901 1140.99 494.735Z" fill="#B6B3F3"/>
</g>
<path opacity="0.78" d="M252.311 117.444L248.661 75.7285C246.618 52.3681 263.366 32.4076 286.727 30.3638L290.377 72.0789C292.42 95.4394 275.672 115.4 252.311 117.444Z" fill="#B6B3F3"/>
<path opacity="0.82" d="M525.056 484.01L536.539 441.155C542.969 417.156 566.878 403.352 590.877 409.782L579.394 452.638C572.963 476.636 549.055 490.44 525.056 484.01Z" fill="#B6B3F3"/>
<g opacity="0.58" filter="url(#filter4_f_1_4)">
<path d="M1008.48 94.4298H977.376C959.956 94.4298 946.27 80.7433 946.27 63.3241L977.376 63.3241C994.795 63.3241 1008.48 77.0106 1008.48 94.4298Z" fill="#B6B3F3"/>
</g>
<path opacity="0.65" d="M82.2555 572.036L52.7063 552.847C36.1588 542.1 31.6005 520.655 42.3466 504.108L71.8958 523.297C88.4434 534.043 93.0016 555.488 82.2555 572.036Z" fill="#B6B3F3"/>
<path opacity="0.73" d="M186.42 772.893L171.57 736.138C163.254 715.555 172.892 692.848 193.475 684.532L208.325 721.287C216.641 741.87 207.003 764.577 186.42 772.893Z" fill="#B6B3F3"/>
<path opacity="0.8" d="M298.148 418.618L301.144 375.773C302.822 351.779 322.992 334.246 346.985 335.924L343.989 378.769C342.312 402.762 322.141 420.296 298.148 418.618Z" fill="#B6B3F3"/>
<g opacity="0.5" filter="url(#filter5_f_1_4)">
<path d="M1171.89 352.238L1148.3 365.857C1135.09 373.484 1118.72 369.097 1111.09 355.887L1134.68 342.268C1147.89 334.641 1164.26 339.028 1171.89 352.238Z" fill="#B6B3F3"/>
</g>
<path opacity="0.82" d="M539.789 627.513L549.72 584.496C555.281 560.407 578.579 545.849 602.668 551.411L592.737 594.428C587.175 618.517 563.878 633.075 539.789 627.513Z" fill="#B6B3F3"/>
<path opacity="0.79" d="M658.618 540.471L659.361 497.915C659.777 474.083 678.829 455.685 702.66 456.101L701.917 498.658C701.502 522.489 682.45 540.887 658.618 540.471Z" fill="#B6B3F3"/>
<path opacity="0.77" d="M692.437 684.522L688.076 643.032C685.634 619.798 701.971 599.624 725.205 597.182L729.566 638.672C732.008 661.906 715.671 682.08 692.437 684.522Z" fill="#B6B3F3"/>
<g opacity="0.53" filter="url(#filter6_f_1_4)">
<path d="M1092.17 204.698L1064.72 213.617C1049.35 218.611 1033.35 210.458 1028.35 195.086L1055.8 186.168C1071.17 181.173 1087.18 189.327 1092.17 204.698Z" fill="#B6B3F3"/>
</g>
<path opacity="0.82" d="M406.458 562.368L417.156 519.461C423.146 495.433 446.732 481.262 470.76 487.252L460.062 530.159C454.071 554.187 430.485 568.358 406.458 562.368Z" fill="#B6B3F3"/>
<g opacity="0.58" filter="url(#filter7_f_1_4)">
<path d="M1013.45 760.843H982.349C964.93 760.843 951.243 747.156 951.243 729.737H982.349C999.768 729.737 1013.45 743.424 1013.45 760.843Z" fill="#B6B3F3"/>
</g>
<g opacity="0.47" filter="url(#filter8_f_1_4)">
<path d="M1278.36 437.138L1259.64 454.603C1249.15 464.383 1233.22 463.827 1223.44 453.339L1242.17 435.874C1252.66 426.094 1268.58 426.65 1278.36 437.138Z" fill="#B6B3F3"/>
</g>
<path opacity="0.69" d="M818.012 578.789L793.944 550.106C780.466 534.043 782.497 510.833 798.559 497.355L822.627 526.038C836.105 542.1 834.074 565.311 818.012 578.789Z" fill="#B6B3F3"/>
<path opacity="0.63" d="M912.547 349.881L881.206 336.578C863.655 329.128 855.718 309.485 863.168 291.934L894.509 305.237C912.06 312.687 919.997 332.331 912.547 349.881Z" fill="#B6B3F3"/>
<path opacity="0.69" d="M806.408 447.827L782.34 419.144C768.862 403.082 770.893 379.871 786.955 366.394L811.023 395.076C824.501 411.139 822.47 434.349 806.408 447.827Z" fill="#B6B3F3"/>
<path opacity="0.82" d="M474.61 208.322L486.865 165.583C493.728 141.649 517.925 128.237 541.859 135.1L529.603 177.838C522.741 201.772 498.543 215.185 474.61 208.322Z" fill="#B6B3F3"/>
<g opacity="0.55" filter="url(#filter9_f_1_4)">
<path d="M1055.75 601.08L1026.86 607.22C1010.69 610.659 995.275 600.65 991.837 584.475L1020.72 578.335C1036.9 574.896 1052.31 584.905 1055.75 601.08Z" fill="#B6B3F3"/>
</g>
<path opacity="0.81" d="M260.252 0.490875L267.855 -42.624C272.112 -66.7683 294.427 -82.3938 318.572 -78.1365L310.969 -35.0217C306.712 -10.8773 284.397 4.74817 260.252 0.490875Z" fill="#B6B3F3"/>
<path opacity="0.65" d="M78.9401 694.709L49.3909 675.52C32.8433 664.774 28.285 643.328 39.0311 626.781L68.5803 645.97C85.1279 656.717 89.6862 678.162 78.9401 694.709Z" fill="#B6B3F3"/>
<path opacity="0.7" d="M155.451 334.533L133.17 303.866C120.693 286.693 124.383 263.396 141.556 250.918L163.837 281.585C176.314 298.759 172.625 322.056 155.451 334.533Z" fill="#B6B3F3"/>
<path opacity="0.64" d="M65.756 339.803L34.878 324.742C17.5863 316.309 10.6265 296.096 19.0602 278.804L49.9382 293.864C67.2299 302.298 74.1897 322.511 65.756 339.803Z" fill="#B6B3F3"/>
<path opacity="0.72" d="M173.554 201.775L154.75 167.851C144.22 148.853 150.872 125.653 169.87 115.123L188.674 149.047C199.204 168.044 192.552 191.244 173.554 201.775Z" fill="#B6B3F3"/>
<path opacity="0.79" d="M298.023 789.403V746.948C298.023 723.173 316.704 704.492 340.479 704.492V746.948C340.479 770.723 321.799 789.403 298.023 789.403Z" fill="#B6B3F3"/>
<path opacity="0.79" d="M281.446 537.426V494.971C281.446 471.195 300.127 452.515 323.902 452.515V494.971C323.902 518.746 305.221 537.426 281.446 537.426Z" fill="#B6B3F3"/>
<path opacity="0.79" d="M283.104 227.428V184.973C283.104 161.197 301.784 142.517 325.559 142.517V184.973C325.559 208.748 306.879 227.428 283.104 227.428Z" fill="#B6B3F3"/>
<g opacity="0.47" filter="url(#filter10_f_1_4)">
<path d="M1278.36 728.901L1259.64 746.366C1249.15 756.146 1233.22 755.59 1223.44 745.102L1242.17 727.637C1252.66 717.857 1268.58 718.413 1278.36 728.901Z" fill="#B6B3F3"/>
</g>
<path opacity="0.65" d="M68.9936 101.237L39.4444 82.0474C22.8968 71.3013 18.3385 49.8562 29.0847 33.3087L58.6339 52.4982C75.1814 63.2443 79.7397 84.6893 68.9936 101.237Z" stroke="#B6B3F3" stroke-width="1.27523"/>
<path opacity="0.65" d="M77.2823 819.04L47.7331 799.85C31.1855 789.104 26.6272 767.659 37.3734 751.112L66.9226 770.301C83.4701 781.047 88.0284 802.492 77.2823 819.04Z" stroke="#B6B3F3" stroke-width="1.27523"/>
<path opacity="0.65" d="M75.6246 457.652L46.0754 438.462C29.5278 427.716 24.9695 406.271 35.7156 389.723L65.2648 408.913C81.8124 419.659 86.3707 441.104 75.6246 457.652Z" stroke="#B6B3F3" stroke-width="1.27523"/>
<path opacity="0.65" d="M70.6513 222.252L41.1021 203.063C24.5546 192.317 19.9963 170.871 30.7424 154.324L60.2916 173.513C76.8392 184.26 81.3974 205.705 70.6513 222.252Z" stroke="#B6B3F3" stroke-width="1.27523"/>
<path opacity="0.81" d="M586.824 123.169L594.427 80.0486C598.685 55.9014 621.003 40.274 645.151 44.5318L637.547 87.6518C633.29 111.799 610.971 127.426 586.824 123.169Z" stroke="#B6B3F3" stroke-width="1.58475"/>
<path opacity="0.82" d="M507.762 340.943L520.018 298.202C526.882 274.267 551.08 260.853 575.015 267.717L562.76 310.458C555.896 334.393 531.698 347.807 507.762 340.943Z" stroke="#B6B3F3" stroke-width="1.60931"/>
<g opacity="0.55" filter="url(#filter11_f_1_4)">
<path d="M1050.77 355.734L1021.89 361.874C1005.71 365.312 990.302 355.304 986.864 339.128L1015.75 332.989C1031.93 329.55 1047.34 339.558 1050.77 355.734Z" stroke="#B6B3F3" stroke-width="1.06883"/>
</g>
<g opacity="0.5" filter="url(#filter12_f_1_4)">
<path d="M1155.31 672.182L1131.72 685.802C1118.51 693.428 1102.14 689.042 1094.52 675.832L1118.1 662.212C1131.31 654.585 1147.69 658.972 1155.31 672.182Z" stroke="#B6B3F3" stroke-width="0.985873"/>
</g>
<path opacity="0.82" d="M416.404 835.895L427.102 792.989C433.093 768.961 456.679 754.789 480.706 760.78L470.009 803.687C464.018 827.714 440.432 841.886 416.404 835.895Z" stroke="#B6B3F3" stroke-width="1.60049"/>
<path opacity="0.81" d="M474.911 77.0828L481.731 34.0234C485.55 9.91011 507.497 -6.03527 531.61 -2.2161L524.791 40.8433C520.971 64.9566 499.024 80.902 474.911 77.0828Z" stroke="#B6B3F3" stroke-width="1.57791"/>
<g opacity="0.47" filter="url(#filter13_f_1_4)">
<path d="M1271.73 578.046L1253 595.511C1242.52 605.291 1226.59 604.735 1216.81 594.247L1235.54 576.782C1246.03 567.002 1261.95 567.558 1271.73 578.046Z" stroke="#B6B3F3" stroke-width="0.926858"/>
</g>
<path opacity="0.67" d="M848.636 761.241L821.248 737.433C805.911 724.101 804.336 701.575 817.668 686.238L845.056 710.045C860.393 723.378 861.968 745.904 848.636 761.241Z" stroke="#B6B3F3" stroke-width="1.31343"/>
<path opacity="0.8" d="M614.821 255.572L619.343 212.551C621.875 188.459 642.794 171.52 666.886 174.052L662.364 217.073C659.832 241.165 638.913 258.104 614.821 255.572Z" stroke="#B6B3F3" stroke-width="1.56567"/>
<path opacity="0.62" d="M876.703 73.0355L844.862 63.3006C827.031 57.849 817.304 39.5554 822.755 21.7242L854.597 31.4591C872.428 36.9107 882.155 55.2043 876.703 73.0355Z" stroke="#B6B3F3" stroke-width="1.20512"/>
<path opacity="0.8" d="M299.806 660.649L302.802 617.803C304.48 593.81 324.65 576.276 348.643 577.954L345.647 620.799C343.969 644.793 323.799 662.326 299.806 660.649Z" stroke="#B6B3F3" stroke-width="1.55452"/>
<g opacity="0.49" filter="url(#filter14_f_1_4)">
<path d="M1197.72 214.252L1175.51 229.233C1163.07 237.622 1146.7 234.441 1138.32 222.003L1160.53 207.022C1172.96 198.633 1189.33 201.814 1197.72 214.252Z" stroke="#B6B3F3" stroke-width="0.96965"/>
</g>
<path opacity="0.79" d="M643.699 399.563L644.442 357.006C644.858 333.175 663.909 314.777 687.741 315.193L686.998 357.749C686.582 381.581 667.53 399.979 643.699 399.563Z" stroke="#B6B3F3" stroke-width="1.5405"/>
<path opacity="0.63" d="M925.809 643.302L894.468 629.999C876.917 622.549 868.98 602.905 876.43 585.354L907.771 598.658C925.322 606.108 933.258 625.751 925.809 643.302Z" stroke="#B6B3F3" stroke-width="1.23231"/>
<path opacity="0.72" d="M185.159 475.302L166.354 441.378C155.824 422.381 162.477 399.181 181.474 388.65L200.278 422.574C210.809 441.572 204.156 464.772 185.159 475.302Z" stroke="#B6B3F3" stroke-width="1.40384"/>
<path opacity="0.76" d="M243.123 333.566L235.968 292.988C231.961 270.264 246.667 249.262 269.391 245.255L276.546 285.833C280.553 308.556 265.847 329.559 243.123 333.566Z" stroke="#B6B3F3" stroke-width="1.49132"/>
</g>
<defs>
<filter id="filter0_d_1_4" x="0" y="0" width="1288" height="840" filterUnits="userSpaceOnUse" color-interpolation-filters="sRGB">
<feFlood flood-opacity="0" result="BackgroundImageFix"/>
<feColorMatrix in="SourceAlpha" type="matrix" values="0 0 0 0 0 0 0 0 0 0 0 0 0 0 0 0 0 0 127 0" result="hardAlpha"/>
<feOffset dy="4"/>
<feGaussianBlur stdDeviation="2"/>
<feComposite in2="hardAlpha" operator="out"/>
<feColorMatrix type="matrix" values="0 0 0 0 0 0 0 0 0 0 0 0 0 0 0 0 0 0 0.25 0"/>
<feBlend mode="normal" in2="BackgroundImageFix" result="effect1_dropShadow_1_4"/>
<feBlend mode="normal" in="SourceGraphic" in2="effect1_dropShadow_1_4" result="shape"/>
</filter>
<filter id="filter1_f_1_4" x="919.23" y="191.82" width="63.2426" height="42.6683" filterUnits="userSpaceOnUse" color-interpolation-filters="sRGB">
<feFlood flood-opacity="0" result="BackgroundImageFix"/>
<feBlend mode="normal" in="SourceGraphic" in2="BackgroundImageFix" result="shape"/>
<feGaussianBlur stdDeviation="0.772471" result="effect1_foregroundBlur_1_4"/>
</filter>
<filter id="filter2_f_1_4" x="914.257" y="443.797" width="63.2426" height="42.6683" filterUnits="userSpaceOnUse" color-interpolation-filters="sRGB">
<feFlood flood-opacity="0" result="BackgroundImageFix"/>
<feBlend mode="normal" in="SourceGraphic" in2="BackgroundImageFix" result="shape"/>
<feGaussianBlur stdDeviation="0.772471" result="effect1_foregroundBlur_1_4"/>
</filter>
<filter id="filter3_f_1_4" x="1077.66" y="478.175" width="64.6713" height="33.5922" filterUnits="userSpaceOnUse" color-interpolation-filters="sRGB">
<feFlood flood-opacity="0" result="BackgroundImageFix"/>
<feBlend mode="normal" in="SourceGraphic" in2="BackgroundImageFix" result="shape"/>
<feGaussianBlur stdDeviation="0.669004" result="effect1_foregroundBlur_1_4"/>
</filter>
<filter id="filter4_f_1_4" x="944.769" y="61.823" width="65.2136" height="34.1079" filterUnits="userSpaceOnUse" color-interpolation-filters="sRGB">
<feFlood flood-opacity="0" result="BackgroundImageFix"/>
<feBlend mode="normal" in="SourceGraphic" in2="BackgroundImageFix" result="shape"/>
<feGaussianBlur stdDeviation="0.750555" result="effect1_foregroundBlur_1_4"/>
</filter>
<filter id="filter5_f_1_4" x="1109.78" y="337.213" width="63.4273" height="33.6995" filterUnits="userSpaceOnUse" color-interpolation-filters="sRGB">
<feFlood flood-opacity="0" result="BackgroundImageFix"/>
<feBlend mode="normal" in="SourceGraphic" in2="BackgroundImageFix" result="shape"/>
<feGaussianBlur stdDeviation="0.657249" result="effect1_foregroundBlur_1_4"/>
</filter>
<filter id="filter6_f_1_4" x="1026.96" y="183.308" width="66.6025" height="33.1676" filterUnits="userSpaceOnUse" color-interpolation-filters="sRGB">
<feFlood flood-opacity="0" result="BackgroundImageFix"/>
<feBlend mode="normal" in="SourceGraphic" in2="BackgroundImageFix" result="shape"/>
<feGaussianBlur stdDeviation="0.696409" result="effect1_foregroundBlur_1_4"/>
</filter>
<filter id="filter7_f_1_4" x="949.742" y="728.236" width="65.2136" height="34.1079" filterUnits="userSpaceOnUse" color-interpolation-filters="sRGB">
<feFlood flood-opacity="0" result="BackgroundImageFix"/>
<feBlend mode="normal" in="SourceGraphic" in2="BackgroundImageFix" result="shape"/>
<feGaussianBlur stdDeviation="0.750555" result="effect1_foregroundBlur_1_4"/>
</filter>
<filter id="filter8_f_1_4" x="1222.21" y="427.654" width="57.3937" height="35.1683" filterUnits="userSpaceOnUse" color-interpolation-filters="sRGB">
<feFlood flood-opacity="0" result="BackgroundImageFix"/>
<feBlend mode="normal" in="SourceGraphic" in2="BackgroundImageFix" result="shape"/>
<feGaussianBlur stdDeviation="0.617905" result="effect1_foregroundBlur_1_4"/>
</filter>
<filter id="filter9_f_1_4" x="990.412" y="576.234" width="66.7612" height="33.0867" filterUnits="userSpaceOnUse" color-interpolation-filters="sRGB">
<feFlood flood-opacity="0" result="BackgroundImageFix"/>
<feBlend mode="normal" in="SourceGraphic" in2="BackgroundImageFix" result="shape"/>
<feGaussianBlur stdDeviation="0.712556" result="effect1_foregroundBlur_1_4"/>
</filter>
<filter id="filter10_f_1_4" x="1222.21" y="719.417" width="57.3937" height="35.1683" filterUnits="userSpaceOnUse" color-interpolation-filters="sRGB">
<feFlood flood-opacity="0" result="BackgroundImageFix"/>
<feBlend mode="normal" in="SourceGraphic" in2="BackgroundImageFix" result="shape"/>
<feGaussianBlur stdDeviation="0.617905" result="effect1_foregroundBlur_1_4"/>
</filter>
<filter id="filter11_f_1_4" x="984.805" y="330.354" width="68.0289" height="34.1557" filterUnits="userSpaceOnUse" color-interpolation-filters="sRGB">
<feFlood flood-opacity="0" result="BackgroundImageFix"/>
<feBlend mode="normal" in="SourceGraphic" in2="BackgroundImageFix" result="shape"/>
<feGaussianBlur stdDeviation="0.712556" result="effect1_foregroundBlur_1_4"/>
</filter>
<filter id="filter12_f_1_4" x="1092.53" y="656.664" width="64.774" height="34.6855" filterUnits="userSpaceOnUse" color-interpolation-filters="sRGB">
<feFlood flood-opacity="0" result="BackgroundImageFix"/>
<feBlend mode="normal" in="SourceGraphic" in2="BackgroundImageFix" result="shape"/>
<feGaussianBlur stdDeviation="0.657249" result="effect1_foregroundBlur_1_4"/>
</filter>
<filter id="filter13_f_1_4" x="1214.92" y="568.099" width="58.7037" height="36.0951" filterUnits="userSpaceOnUse" color-interpolation-filters="sRGB">
<feFlood flood-opacity="0" result="BackgroundImageFix"/>
<feBlend mode="normal" in="SourceGraphic" in2="BackgroundImageFix" result="shape"/>
<feGaussianBlur stdDeviation="0.617905" result="effect1_foregroundBlur_1_4"/>
</filter>
<filter id="filter14_f_1_4" x="1136.35" y="200.566" width="63.3335" height="35.1237" filterUnits="userSpaceOnUse" color-interpolation-filters="sRGB">
<feFlood flood-opacity="0" result="BackgroundImageFix"/>
<feBlend mode="normal" in="SourceGraphic" in2="BackgroundImageFix" result="shape"/>
<feGaussianBlur stdDeviation="0.646433" result="effect1_foregroundBlur_1_4"/>
</filter>
<clipPath id="clip0_1_4">
<rect width="1280" height="832" fill="white" transform="translate(4)"/>
</clipPath>
</defs>
</svg>
